<svg width="125" height="118" viewBox="0 0 125 118" fill="none" xmlns="http://www.w3.org/2000/svg">
<g clip-path="url(#clip0_163_1912)">
<path d="M55.322 30.165C55.6032 30.165 55.8771 30.1795 56.1583 30.1867V9.30606C55.8771 9.30606 55.6032 9.28432 55.322 9.28432C37.7295 9.28432 22.2496 18.5252 13.4102 32.4263L30.8368 43.7689C35.9703 35.6008 45.0189 30.165 55.322 30.165Z" fill="#CB2332"/>
<path d="M59.9298 97.1194C43.9741 97.1194 30.9888 84.0662 30.9888 68.027C30.9888 62.3376 32.6255 57.025 35.4446 52.5387L18.018 41.196C13.0864 48.9511 10.2168 58.1556 10.2168 68.027C10.2168 95.5828 32.5174 118 59.9298 118C60.211 118 60.485 117.986 60.7662 117.978V97.0976C60.4922 97.1049 60.211 97.1194 59.9298 97.1194Z" fill="#FBBB1D"/>
<path d="M109.65 68.0198C109.65 40.7466 87.796 18.5179 60.7656 18.0685V38.9492C76.3393 39.3986 88.8775 52.2632 88.8775 68.0198C88.8775 83.7763 76.3393 96.6482 60.7656 97.0904V117.971C87.796 117.522 109.65 95.2929 109.65 68.0198Z" fill="#0B98D0"/>
<path d="M114.221 66.5267V67.0921C114.221 67.5269 114.408 67.6864 114.711 67.6864C115.014 67.6864 115.202 67.5269 115.202 67.0921V65.7512C115.202 65.3164 115.014 65.1497 114.711 65.1497C114.408 65.1497 114.221 65.3164 114.221 65.7512V65.9324H113.32L113.493 62.4028H116.002V63.2725H114.351L114.271 64.7221C114.444 64.4322 114.718 64.28 115.101 64.28C115.8 64.28 116.153 64.7728 116.153 65.6715V67.0268C116.153 67.998 115.67 68.5561 114.733 68.5561C113.796 68.5561 113.312 67.998 113.312 67.0268V66.5195H114.214L114.221 66.5267Z" fill="#A6A8AB"/>
<path d="M116.715 63.8668C116.715 62.8956 117.227 62.3376 118.157 62.3376C119.087 62.3376 119.599 62.8956 119.599 63.8668V67.0341C119.599 68.0053 119.087 68.5634 118.157 68.5634C117.227 68.5634 116.715 68.0053 116.715 67.0341V63.8668ZM117.667 67.0921C117.667 67.5269 117.854 67.6936 118.157 67.6936C118.46 67.6936 118.647 67.5269 118.647 67.0921V63.8089C118.647 63.374 118.46 63.2073 118.157 63.2073C117.854 63.2073 117.667 63.374 117.667 63.8089V67.0921Z" fill="#A6A8AB"/>
<path d="M120.17 63.3378C120.17 62.7144 120.487 62.3666 121.086 62.3666C121.684 62.3666 122.001 62.7144 122.001 63.3378V65.3381C122.001 65.9614 121.684 66.3093 121.086 66.3093C120.487 66.3093 120.17 65.9614 120.17 65.3381V63.3378ZM120.776 65.3816C120.776 65.6498 120.891 65.7657 121.086 65.7657C121.28 65.7657 121.396 65.6498 121.396 65.3816V63.2943C121.396 63.0261 121.273 62.9101 121.086 62.9101C120.898 62.9101 120.776 63.0261 120.776 63.2943V65.3816ZM123.472 62.41H124.034L121.648 68.4981H121.086L123.472 62.41ZM123.169 65.5628C123.169 64.9395 123.487 64.5916 124.085 64.5916C124.683 64.5916 125.001 64.9395 125.001 65.5628V67.5632C125.001 68.1865 124.683 68.5344 124.085 68.5344C123.487 68.5344 123.169 68.1865 123.169 67.5632V65.5628ZM123.775 67.6067C123.775 67.8748 123.89 67.9908 124.085 67.9908C124.28 67.9908 124.395 67.8748 124.395 67.6067V65.5193C124.395 65.2512 124.272 65.1352 124.085 65.1352C123.898 65.1352 123.775 65.2512 123.775 65.5193V67.6067Z" fill="#A6A8AB"/>
<path d="M1.88181 93.1766C1.88181 92.633 1.69435 92.4808 1.39153 92.4808C1.08871 92.4808 0.901252 92.6475 0.901252 93.0824V93.4737H0V93.1403C0 92.1692 0.483071 91.6111 1.42037 91.6111C2.35767 91.6111 2.84075 92.1692 2.84075 93.1403V93.2998C2.84075 93.9521 2.63165 94.358 2.17742 94.5537C2.65329 94.7638 2.84075 95.2132 2.84075 95.8293V96.3076C2.84075 97.2788 2.35767 97.8369 1.42037 97.8369C0.483071 97.8369 0 97.2788 0 96.3076V95.8003H0.901252V96.3656C0.901252 96.8004 1.08871 96.9671 1.39153 96.9671C1.69435 96.9671 1.88181 96.8222 1.88181 96.2786V95.8003C1.88181 95.2349 1.69435 95.0248 1.26175 95.0248H0.944512V94.155H1.31943C1.67272 94.155 1.88902 93.9956 1.88902 93.51V93.1693L1.88181 93.1766Z" fill="#A6A8AB"/>
<path d="M4.33229 95.8003V96.3656C4.33229 96.8004 4.51975 96.9599 4.82257 96.9599C5.12539 96.9599 5.31285 96.8004 5.31285 96.3656V95.0248C5.31285 94.5899 5.12539 94.4232 4.82257 94.4232C4.51975 94.4232 4.33229 94.5899 4.33229 95.0248V95.2059H3.43104L3.60408 91.6763H6.11316V92.546H4.46207L4.38276 93.9956C4.5558 93.7057 4.82978 93.5535 5.21191 93.5535C5.91128 93.5535 6.26457 94.0463 6.26457 94.945V96.3003C6.26457 97.2715 5.7815 97.8296 4.8442 97.8296C3.9069 97.8296 3.42383 97.2715 3.42383 96.3003V95.793H4.32508L4.33229 95.8003Z" fill="#A6A8AB"/>
<path d="M6.84961 92.6113C6.84961 91.988 7.16685 91.6401 7.76528 91.6401C8.36371 91.6401 8.68095 91.988 8.68095 92.6113V94.6116C8.68095 95.2349 8.36371 95.5828 7.76528 95.5828C7.16685 95.5828 6.84961 95.2349 6.84961 94.6116V92.6113ZM7.45525 94.6551C7.45525 94.9233 7.57061 95.0393 7.76528 95.0393C7.95995 95.0393 8.07531 94.9233 8.07531 94.6551V92.5678C8.07531 92.2996 7.95274 92.1837 7.76528 92.1837C7.57782 92.1837 7.45525 92.2996 7.45525 92.5678V94.6551ZM10.1518 91.6836H10.7142L8.32766 97.7716H7.76528L10.1518 91.6836ZM9.85618 94.8363C9.85618 94.213 10.1734 93.8651 10.7719 93.8651C11.3703 93.8651 11.6875 94.213 11.6875 94.8363V96.8367C11.6875 97.46 11.3703 97.8079 10.7719 97.8079C10.1734 97.8079 9.85618 97.46 9.85618 96.8367V94.8363ZM10.4546 96.8802C10.4546 97.1483 10.57 97.2643 10.7646 97.2643C10.9593 97.2643 11.0747 97.1483 11.0747 96.8802V94.7928C11.0747 94.5247 10.9521 94.4087 10.7646 94.4087C10.5772 94.4087 10.4546 94.5247 10.4546 94.7928V96.8802Z" fill="#A6A8AB"/>
<path d="M8.16211 1.56551C9.58248 1.56551 9.89972 0.876976 10.1809 0.0869751H11.421V11.8428H9.58248V2.8701H8.16211V1.55826V1.56551Z" fill="#A6A8AB"/>
<path d="M15.2923 8.04496V9.13937C15.2923 9.9801 15.66 10.2845 16.244 10.2845C16.828 10.2845 17.1957 9.9801 17.1957 9.13937V6.55193C17.1957 5.7112 16.828 5.3923 16.244 5.3923C15.66 5.3923 15.2923 5.7112 15.2923 6.55193V6.90707H13.5547L13.8936 0.0869751H18.7387V1.76844H15.5447L15.3932 4.57331C15.7249 4.02248 16.2657 3.71808 17.0011 3.71808C18.3566 3.71808 19.0415 4.67478 19.0415 6.40698V9.03065C19.0415 10.9151 18.1042 11.9877 16.3017 11.9877C14.4992 11.9877 13.5619 10.9151 13.5619 9.03065V8.05946H15.2995L15.2923 8.04496Z" fill="#A6A8AB"/>
<path d="M20.1602 1.88441C20.1602 0.674037 20.7802 0 21.9338 0C23.0874 0 23.7075 0.674037 23.7075 1.88441V5.74744C23.7075 6.9578 23.0874 7.63184 21.9338 7.63184C20.7802 7.63184 20.1602 6.9578 20.1602 5.74744V1.88441ZM21.3282 5.82716C21.3282 6.349 21.5445 6.56643 21.9266 6.56643C22.3087 6.56643 22.525 6.349 22.525 5.82716V1.79743C22.525 1.2756 22.2943 1.05817 21.9266 1.05817C21.5589 1.05817 21.3282 1.2756 21.3282 1.79743V5.82716ZM26.541 0.0869725H27.6297L23.0153 11.8428H21.9266L26.541 0.0869725ZM25.957 6.1823C25.957 4.97193 26.5771 4.29789 27.7307 4.29789C28.8843 4.29789 29.5043 4.97193 29.5043 6.1823V10.0453C29.5043 11.2557 28.8843 11.9297 27.7307 11.9297C26.5771 11.9297 25.957 11.2557 25.957 10.0453V6.1823ZM27.125 10.1323C27.125 10.6541 27.3413 10.8716 27.7235 10.8716C28.1056 10.8716 28.3219 10.6541 28.3219 10.1323V6.10257C28.3219 5.58074 28.0912 5.36331 27.7235 5.36331C27.3558 5.36331 27.125 5.58074 27.125 6.10257V10.1323Z" fill="#A6A8AB"/>
</g>
<defs>
<clipPath id="clip0_163_1912">
<rect width="125" height="118" fill="white"/>
</clipPath>
</defs>
</svg>
