<svg width="310" height="120" viewBox="0 0 310 120" fill="none" xmlns="http://www.w3.org/2000/svg">
<rect x="0.5" y="0.5" width="309" height="119" rx="15.5" fill="white" stroke="#CCCCCC"/>
<path d="M157.754 60.0085C157.754 59.4932 157.726 58.9778 157.697 58.4911C157.668 58.0044 157.582 57.489 157.525 57.0023H150.568H143.611L141.492 60.3234L139.373 63.6446H150.11C149.48 65.8205 148.249 67.6814 146.588 68.9984C144.928 70.3154 142.838 71.1171 140.404 71.1171C137.369 71.1171 134.678 69.8573 132.703 67.8246C130.727 65.7918 129.525 63.0147 129.525 59.9512C129.525 56.945 130.727 54.1965 132.731 52.1924C134.707 50.1883 137.455 48.9285 140.49 48.9285C141.807 48.9285 143.038 49.129 144.183 49.5298C145.329 49.902 146.359 50.4746 147.275 51.1617L149.136 48.1842L150.997 45.2066C149.566 44.2045 147.963 43.4029 146.187 42.8875C144.441 42.3436 142.523 42.0859 140.519 42.0859C137.827 42.0859 135.394 42.5726 133.247 43.4602C131.099 44.3477 129.181 45.6361 127.578 47.2394C123.77 51.0472 122.682 54.9123 121.938 58.4338C121.165 61.984 120.735 65.2192 118.13 67.796C117.042 68.8839 115.868 69.7142 114.551 70.2582C113.234 70.8021 111.831 71.0885 110.314 71.0885C107.193 71.0885 104.387 69.8001 102.326 67.7673C100.293 65.7346 99.0333 62.9574 99.0333 59.9512C99.0333 57.0023 100.293 54.2538 102.326 52.221C104.359 50.1883 107.164 48.8999 110.314 48.8713C111.631 48.8999 112.833 49.1003 113.95 49.4439C115.066 49.7875 116.097 50.3314 117.013 51.0186L118.903 48.041L120.792 45.0634C119.361 44.0614 117.758 43.2884 116.011 42.773C114.265 42.2577 112.346 42 110.342 42C107.25 42 104.359 42.7444 101.839 44.0614C99.3196 45.3784 97.1723 47.2394 95.5403 49.4725C94.9105 47.497 93.5935 45.8078 91.7898 44.634C89.9861 43.4315 87.6956 42.7444 85.1189 42.7444H77.0451H69V60.0085V77.2154H86.7508C88.984 77.2154 90.9881 76.6714 92.6487 75.7552C94.3092 74.839 95.6262 73.522 96.5424 71.976C98.203 73.8083 100.207 75.2971 102.498 76.3278C104.788 77.3585 107.336 77.9311 110.085 77.9311C113.291 77.9311 116.24 77.1867 118.788 75.8411C121.336 74.4955 123.484 72.5772 125.144 70.2009C126.719 72.5486 128.866 74.4668 131.443 75.8125C133.991 77.1581 136.997 77.9311 140.204 77.9311C145.157 77.9311 149.537 75.927 152.687 72.6631C155.836 69.4565 157.754 64.9616 157.754 60.0085ZM76.4725 56.716V49.1862H84.9757C86.0637 49.1862 87.0085 49.587 87.6956 50.2455C88.3828 50.904 88.8122 51.8488 88.8122 52.9368C88.8122 54.0247 88.3828 54.9696 87.6956 55.6281C87.0085 56.3152 86.0351 56.716 84.9757 56.716H80.7385H76.4725ZM76.4725 70.8308V63.0147H86.6649C87.8102 63.0147 88.8122 63.4441 89.5566 64.1313C90.301 64.8184 90.7591 65.7918 90.7591 66.9084C90.7591 68.025 90.301 68.9984 89.5566 69.7142C88.8122 70.43 87.8102 70.8594 86.6649 70.8594H81.5687H76.4725V70.8308Z" fill="#007254"/>
<path d="M174.16 73.0352C174.188 73.0924 174.188 73.1783 174.188 73.2642C174.188 73.3501 174.217 73.4646 174.217 73.5505C174.217 74.6384 173.845 75.5832 173.186 76.2704C172.528 76.9575 171.583 77.3583 170.495 77.3583C169.407 77.3583 168.405 76.9289 167.689 76.1845C166.974 75.4687 166.544 74.4667 166.544 73.3501C166.544 72.2335 167.002 71.2314 167.718 70.5157C168.434 69.7999 169.436 69.3418 170.552 69.3418C171.011 69.3418 171.44 69.3991 171.841 69.5136C172.242 69.6281 172.614 69.7999 172.957 70.0576L172.642 70.5443L172.327 71.031C172.07 70.8306 171.784 70.6875 171.497 70.6016C171.211 70.5157 170.896 70.4584 170.552 70.4584C169.779 70.4584 169.092 70.7733 168.606 71.2601C168.119 71.7468 167.804 72.4625 167.804 73.2928C167.804 74.0945 168.09 74.8102 168.577 75.3256C169.064 75.8409 169.722 76.1559 170.495 76.1559C171.211 76.1559 171.784 75.9268 172.213 75.5546C172.642 75.1824 172.9 74.6385 173.015 74.0372H170.409L170.753 73.4932L171.096 72.9493L174.16 73.0352ZM187.101 77.4156C188.217 77.4156 189.219 76.9575 189.964 76.2418C190.68 75.526 191.138 74.5239 191.138 73.436C191.138 72.348 190.68 71.346 189.964 70.6302C189.248 69.9144 188.217 69.4564 187.101 69.4564C185.984 69.4564 184.982 69.9144 184.266 70.6302C183.551 71.346 183.093 72.348 183.093 73.436C183.093 74.5239 183.551 75.526 184.266 76.2418C184.982 76.9575 185.984 77.4156 187.101 77.4156ZM194.029 69.5995V74.2949C194.029 74.8389 194.23 75.3542 194.573 75.6978C194.917 76.0413 195.404 76.2704 195.976 76.2704C196.549 76.2704 197.035 76.0413 197.379 75.6978C197.723 75.3542 197.923 74.8389 197.923 74.2949V69.5995H199.126V74.2949C199.126 75.1824 198.782 75.9555 198.238 76.5281C197.665 77.072 196.892 77.4156 195.976 77.4156C195.06 77.4156 194.287 77.072 193.714 76.5281C193.142 75.9841 192.798 75.2111 192.798 74.2949V69.5995H194.029ZM179.027 69.5995C179.829 69.5995 180.487 69.8572 180.945 70.3153C181.403 70.7447 181.661 71.3746 181.661 72.0617C181.661 72.6343 181.489 73.121 181.203 73.5219C180.917 73.9227 180.487 74.209 179.943 74.3235L180.859 75.7837L181.776 77.2438H180.344L179.485 75.8696L178.626 74.4953H177.166V77.2438H175.935V69.5995H179.027ZM204.336 69.5995C205.138 69.5995 205.796 69.8858 206.283 70.3153C206.741 70.7734 206.999 71.3746 206.999 72.0904C206.999 72.7775 206.741 73.4073 206.283 73.8654C205.825 74.3235 205.138 74.5812 204.336 74.5812H202.59V77.2438H201.359V69.5995H204.336ZM187.101 76.2704C186.328 76.2704 185.641 75.9554 185.154 75.4401C184.667 74.9248 184.352 74.209 184.352 73.436C184.352 72.663 184.667 71.9472 185.154 71.4318C185.641 70.9165 186.356 70.6016 187.101 70.6016C187.874 70.6016 188.561 70.9165 189.076 71.4318C189.563 71.9472 189.878 72.663 189.878 73.436C189.878 74.2376 189.563 74.9534 189.076 75.4401C188.59 75.9554 187.902 76.2704 187.101 76.2704ZM204.336 73.4932C204.737 73.4932 205.081 73.3501 205.338 73.121C205.596 72.892 205.739 72.5484 205.739 72.119C205.739 71.6895 205.596 71.3746 205.338 71.1169C205.081 70.8879 204.737 70.7447 204.336 70.7447H202.59V73.4932H204.336ZM179.027 73.3787C179.428 73.3787 179.743 73.2642 180 73.0352C180.229 72.8061 180.373 72.4912 180.373 72.0617C180.373 71.6609 180.229 71.3173 180 71.0883C179.771 70.8592 179.428 70.7161 179.027 70.7161H177.166V73.3787H179.027ZM240.153 59.6361C240.181 59.6934 240.181 59.7793 240.181 59.8652C240.181 59.9511 240.21 60.0656 240.21 60.1515C240.21 61.2394 239.838 62.1842 239.179 62.8714C238.521 63.5585 237.576 63.988 236.488 63.988C235.372 63.988 234.398 63.5585 233.682 62.8141C232.967 62.0983 232.537 61.0963 232.537 59.9797C232.537 58.8631 232.967 57.8611 233.711 57.1453C234.427 56.4295 235.429 55.9714 236.545 55.9714C237.003 55.9714 237.433 56.0287 237.834 56.1432C238.235 56.2578 238.607 56.4295 238.95 56.6872L238.635 57.1739L238.32 57.6606C238.063 57.4602 237.777 57.3171 237.49 57.2312C237.204 57.1453 236.889 57.088 236.545 57.088C235.772 57.088 235.085 57.403 234.599 57.8897C234.112 58.405 233.797 59.1208 233.797 59.9224C233.797 60.7241 234.083 61.4398 234.57 61.9552C235.057 62.4705 235.715 62.7855 236.488 62.7855C237.204 62.7855 237.777 62.5564 238.206 62.1842C238.635 61.812 238.893 61.2681 239.008 60.6668H236.402L236.746 60.1229L237.089 59.5789L240.153 59.6361ZM200.614 56.2005V60.8959C200.614 61.4399 200.815 61.9552 201.158 62.2988C201.502 62.6423 201.989 62.8714 202.561 62.8714C203.134 62.8714 203.62 62.6423 203.964 62.2988C204.308 61.9552 204.508 61.4399 204.508 60.8959V56.2005H205.71V60.8959C205.71 61.7834 205.367 62.5564 204.823 63.129C204.25 63.673 203.477 64.0166 202.561 64.0166C201.645 64.0166 200.872 63.673 200.299 63.129C199.727 62.5851 199.383 61.812 199.383 60.8959V56.2005H200.614ZM194.917 64.0166C195.776 64.0166 196.434 63.7589 196.892 63.3581C197.35 62.9286 197.608 62.356 197.608 61.6975C197.608 60.9818 197.322 60.4951 196.892 60.1801C196.463 59.8366 195.89 59.6648 195.289 59.4644C194.802 59.3212 194.373 59.2067 194.087 59.0063C193.8 58.8345 193.628 58.6054 193.628 58.2332C193.628 57.9183 193.743 57.6606 193.943 57.4602C194.172 57.2598 194.487 57.1453 194.945 57.1453C195.232 57.1453 195.518 57.2026 195.804 57.2884C196.091 57.3743 196.377 57.5175 196.663 57.7179L196.978 57.2312L197.293 56.7445C196.978 56.5154 196.635 56.3436 196.262 56.2291C195.862 56.1146 195.461 56.0287 195.003 56.0287C194.201 56.0287 193.543 56.2578 193.113 56.6586C192.684 57.0594 192.426 57.632 192.426 58.2905C192.426 59.0349 192.712 59.493 193.142 59.8079C193.571 60.1229 194.144 60.3233 194.745 60.4951C195.232 60.6382 195.661 60.7814 195.948 60.9531C196.234 61.1249 196.406 61.354 196.406 61.7262C196.406 62.0411 196.291 62.3274 196.033 62.5278C195.804 62.7282 195.432 62.8427 194.945 62.8427C194.545 62.8427 194.201 62.7569 193.858 62.6423C193.514 62.4992 193.17 62.3274 192.855 62.127L192.541 62.6137L192.226 63.1004C192.541 63.3295 192.913 63.5585 193.371 63.7303C193.8 63.9021 194.316 64.0166 194.917 64.0166ZM178.225 64.0166C179.342 64.0166 180.344 63.5585 181.088 62.8427C181.804 62.127 182.262 61.1249 182.262 60.037C182.262 58.949 181.804 57.947 181.088 57.2026C180.344 56.4868 179.342 56.0287 178.225 56.0287C177.109 56.0287 176.107 56.4868 175.391 57.2026C174.675 57.9183 174.217 58.9204 174.217 60.037C174.217 61.1249 174.675 62.127 175.391 62.8427C176.107 63.5585 177.109 64.0166 178.225 64.0166ZM166.516 60.037C166.516 61.1536 166.974 62.1556 167.689 62.8714C168.434 63.5871 169.436 64.0452 170.581 64.0452C171.125 64.0452 171.583 63.9593 172.013 63.8162C172.442 63.673 172.786 63.4726 173.158 63.1863L172.843 62.6996L172.528 62.2129C172.242 62.4419 171.927 62.6137 171.612 62.7282C171.297 62.8427 170.925 62.9 170.552 62.9C169.808 62.9 169.121 62.5851 168.634 62.0697C168.147 61.5544 167.833 60.8386 167.833 60.037C167.833 59.2353 168.119 58.5196 168.634 58.0042C169.121 57.4889 169.808 57.1739 170.552 57.1739C170.953 57.1739 171.297 57.2312 171.612 57.3457C171.927 57.4602 172.242 57.632 172.528 57.8611L172.843 57.3743L173.158 56.8876C172.814 56.63 172.442 56.4009 172.013 56.2578C171.583 56.1146 171.125 56.0287 170.581 56.0287C169.436 56.0287 168.434 56.4582 167.689 57.2026C166.974 57.9183 166.516 58.9204 166.516 60.037ZM221.801 63.8448H220.57V56.2005H221.801V63.8448ZM225.694 63.8448H224.521V56.2005H226.038L227.813 59.0922L229.588 61.9838V56.2005H230.762V63.8448H229.331L227.498 60.8959L225.666 57.9469V63.8448H225.694ZM218.709 57.3457H216.304V63.8448H215.044V57.3457H212.668V56.2005H218.709V57.3457ZM209.118 62.6996H212.897V63.8448H207.886V56.2005H209.118V62.6996ZM185.183 63.8448H184.009V56.2005H185.526L187.301 59.0922L189.076 61.9838V56.2005H190.25V63.8448H188.819L186.986 60.8959L185.154 57.9469V63.8448H185.183ZM178.225 62.8714C177.452 62.8714 176.765 62.5564 176.278 62.0411C175.792 61.5257 175.477 60.81 175.477 60.037C175.477 59.2353 175.792 58.5196 176.278 58.0328C176.765 57.5175 177.481 57.2026 178.225 57.2026C178.998 57.2026 179.685 57.5175 180.201 58.0328C180.688 58.5482 181.002 59.2639 181.002 60.037C181.002 60.8386 180.688 61.5544 180.201 62.0411C179.685 62.5564 178.998 62.8714 178.225 62.8714ZM200.643 50.5889C201.76 50.5889 202.762 50.1309 203.506 49.4151C204.222 48.6993 204.68 47.6973 204.68 46.6093C204.68 45.5214 204.222 44.5193 203.506 43.7749C202.79 43.0592 201.788 42.6011 200.643 42.6011C199.526 42.6011 198.524 43.0592 197.809 43.7749C197.093 44.4907 196.635 45.4927 196.635 46.6093C196.635 47.6973 197.093 48.6993 197.809 49.4151C198.524 50.1595 199.526 50.5889 200.643 50.5889ZM185.927 50.5889C186.786 50.5889 187.444 50.3599 187.902 49.9304C188.36 49.501 188.618 48.9284 188.618 48.2699C188.618 47.5541 188.332 47.0674 187.902 46.7525C187.473 46.4375 186.9 46.2371 186.299 46.0367C185.812 45.8936 185.383 45.779 185.097 45.5786C184.81 45.4068 184.639 45.1778 184.639 44.8056C184.639 44.4907 184.753 44.233 184.953 44.0326C185.183 43.8322 185.497 43.7177 185.956 43.7177C186.242 43.7177 186.528 43.7749 186.814 43.8608C187.101 43.9467 187.387 44.0899 187.673 44.2903L187.988 43.8035L188.303 43.3168C187.988 43.0878 187.645 42.916 187.273 42.8015C186.872 42.687 186.471 42.6011 186.013 42.6011C185.211 42.6011 184.553 42.8301 184.123 43.2309C183.694 43.6318 183.436 44.2044 183.436 44.8629C183.436 45.6073 183.722 46.0653 184.152 46.3803C184.581 46.6952 185.154 46.8956 185.755 47.0674C186.242 47.2106 186.671 47.3537 186.958 47.5255C187.244 47.6973 187.416 47.9263 187.416 48.2985C187.416 48.6134 187.301 48.8997 187.043 49.1002C186.814 49.3006 186.442 49.4151 185.956 49.4151C185.555 49.4151 185.211 49.3292 184.868 49.2147C184.524 49.0715 184.18 48.8998 183.866 48.6993L183.551 49.1861L183.236 49.6728C183.551 49.9018 183.923 50.1309 184.381 50.3026C184.81 50.5031 185.326 50.5889 185.927 50.5889ZM177.996 50.5889C179.113 50.5889 180.115 50.1309 180.859 49.4151C181.575 48.6993 182.033 47.6973 182.033 46.6093C182.033 45.5214 181.575 44.5193 180.859 43.7749C180.144 43.0592 179.142 42.6011 177.996 42.6011C176.88 42.6011 175.878 43.0592 175.162 43.7749C174.446 44.4907 173.988 45.4927 173.988 46.6093C173.988 47.6973 174.446 48.6993 175.162 49.4151C175.878 50.1595 176.88 50.5889 177.996 50.5889ZM207.944 42.8015L209.719 45.6932L211.494 48.5848V42.8015H212.668V50.4458H211.236L209.404 47.4969L207.571 44.5479V50.4744H206.426V42.8301L207.944 42.8015ZM195.862 42.8015V43.9467H193.457V50.4458H192.197V43.9467H189.821V42.8015H195.862ZM169.923 42.8015C170.61 42.8015 171.182 43.0305 171.612 43.3741C172.041 43.7463 172.299 44.2616 172.299 44.8342C172.299 45.1778 172.213 45.4641 172.07 45.7218C171.898 45.9795 171.698 46.2085 171.411 46.3516C171.784 46.5234 172.098 46.7811 172.299 47.096C172.499 47.411 172.614 47.7832 172.614 48.184C172.614 48.8139 172.356 49.3578 171.927 49.7587C171.497 50.1595 170.896 50.3885 170.18 50.3885H166.916V42.7442L169.923 42.8015ZM200.643 49.4437C199.87 49.4437 199.183 49.1288 198.696 48.6135C198.209 48.0981 197.894 47.3823 197.894 46.6093C197.894 45.8363 198.209 45.0919 198.696 44.6052C199.183 44.0899 199.899 43.7749 200.643 43.7749C201.416 43.7749 202.103 44.0899 202.618 44.6052C203.105 45.1205 203.42 45.8363 203.42 46.6093C203.42 47.411 203.105 48.1267 202.618 48.6135C202.103 49.1574 201.416 49.4437 200.643 49.4437ZM177.996 49.4437C177.223 49.4437 176.536 49.1288 176.049 48.6135C175.563 48.0981 175.248 47.3823 175.248 46.6093C175.248 45.8363 175.563 45.0919 176.049 44.6052C176.536 44.0899 177.252 43.7749 177.996 43.7749C178.769 43.7749 179.456 44.0899 179.972 44.6052C180.459 45.1205 180.773 45.8363 180.773 46.6093C180.773 47.411 180.459 48.1267 179.972 48.6135C179.456 49.1574 178.769 49.4437 177.996 49.4437ZM170.123 49.3292C170.467 49.3292 170.753 49.2147 170.982 48.9856C171.182 48.7852 171.325 48.4989 171.325 48.184C171.325 47.8691 171.211 47.5828 170.982 47.3823C170.753 47.1819 170.467 47.0674 170.123 47.0674H168.147V49.3006L170.123 49.3292ZM169.923 46.0367C170.237 46.0367 170.524 45.9222 170.724 45.7218C170.925 45.5214 171.039 45.2637 171.039 44.9488C171.039 44.6338 170.925 44.3762 170.724 44.1757C170.524 43.9753 170.237 43.8608 169.923 43.8608H168.147V46.0081L169.923 46.0367Z" fill="#007254"/>
</svg>
